<?xml version="1.0" encoding="UTF-8"?>
<svg version="1.1" xmlns="http://www.w3.org/2000/svg" width="500" height="500">
<path d="M0 0 C165 0 330 0 500 0 C500 165 500 330 500 500 C335 500 170 500 0 500 C0 335 0 170 0 0 Z " fill="#E3E1DC" transform="translate(0,0)"/>
<path d="M0 0 C0.93788858 5.17079979 0.9367314 9.77090252 0.29296875 14.99609375 C0.20751297 15.74729996 0.12205719 16.49850616 0.03401184 17.2724762 C-0.23988189 19.66186159 -0.52602872 22.04959356 -0.8125 24.4375 C-0.99363427 26.00446551 -1.17397876 27.57152253 -1.35351562 29.13867188 C-1.79960069 33.00906974 -2.26061092 36.87749174 -2.72857666 40.74530029 C-2.99456597 42.95485983 -3.2542411 45.16509334 -3.51318359 47.37548828 C-4.28628399 53.87619613 -5.19298087 60.27916318 -6.55810547 66.68310547 C-7.37070073 70.94361873 -7.71115024 75.24336688 -8.0625 79.5625 C-8.14411377 80.54629639 -8.22572754 81.53009277 -8.30981445 82.54370117 C-9.69624629 100.07798618 -10.45662488 117.45327265 -9 135 C-8.34 135 -7.68 135 -7 135 C-6.875 142.75 -6.875 142.75 -8 145 C-9.671875 145.96484375 -9.671875 145.96484375 -11.75 146.9375 C-14.20057928 148.10174318 -16.35815742 149.23877161 -18.625 150.75 C-21.76309679 152.40162989 -23.50423085 152.65545672 -27 152 C-45.34896218 135.48593404 -49.83717067 97.68985517 -52.640625 74.44921875 C-52.86959519 72.00028761 -52.86959519 72.00028761 -54 70 C-54.47126084 66.37718231 -54.86821612 62.75400597 -55.25 59.12109375 C-55.62626935 54.92946897 -55.62626935 54.92946897 -57 51 C-58.23324498 54.89000039 -59.45967556 58.78208354 -60.68041992 62.67602539 C-61.09466782 63.99429051 -61.51062224 65.31202087 -61.9284668 66.62915039 C-66.90045993 82.3109723 -69.44799597 96.32641572 -69.43579102 112.73510742 C-69.4393681 114.96840281 -69.46668358 117.20051125 -69.49609375 119.43359375 C-69.49794678 120.74384521 -69.4997998 122.05409668 -69.50170898 123.40405273 C-70.11673731 127.84244185 -71.82492537 130.82492537 -75 134 C-78.30674814 134.46294474 -80.86650477 134.59210906 -83.88769531 133.01391602 C-86.71032342 130.86050434 -88.6770801 129.21333732 -89.61083984 125.70483398 C-89.80434953 122.9376454 -89.76190958 120.27067863 -89.625 117.5 C-89.59680176 116.48389648 -89.56860352 115.46779297 -89.53955078 114.42089844 C-88.5056792 86.69941219 -84.46717773 46.76714788 -66.03125 24.63671875 C-63.46996955 22.57291777 -61.33199907 22.52019084 -58.09765625 22.46875 C-54.43130583 23.39728567 -52.00223142 25.50834817 -49.90161133 28.63476562 C-48.81585485 30.55976034 -47.83097693 32.50740174 -46.875 34.5 C-46.52808105 35.21051514 -46.18116211 35.92103027 -45.82373047 36.65307617 C-42.65301581 43.35710981 -40.86359843 50.00732158 -39.6015625 57.3034668 C-38.24834858 64.99775655 -36.54352988 72.58482486 -34.75 80.1875 C-34.44260087 81.49820352 -34.13522819 82.80891324 -33.82788086 84.11962891 C-31.00729111 96.11009497 -28.03906666 108.06309962 -25 120 C-21.82173726 116.82173726 -22.83361997 107.50632974 -22.7097168 103.18725586 C-22.15856233 84.07792057 -20.18773786 65.09863197 -17 46.25 C-16.84619873 45.32823975 -16.69239746 44.40647949 -16.53393555 43.45678711 C-15.67820374 38.68534 -14.49762599 34.3512056 -12.69580078 29.85400391 C-11.61992418 26.98726464 -11.0383214 24.05974047 -10.4375 21.0625 C-10.06238281 19.25652344 -10.06238281 19.25652344 -9.6796875 17.4140625 C-9.27281663 15.37035478 -8.877991 13.32410886 -8.5078125 11.2734375 C-7.50534939 6.01490293 -6.34231291 0 0 0 Z " fill="#212121" transform="translate(254,129)"/>
<path d="M0 0 C1.88323108 0.94496648 3.7040701 2.01251048 5.5078125 3.1015625 C5.5078125 4.0915625 5.5078125 5.0815625 5.5078125 6.1015625 C6.1265625 6.3284375 6.7453125 6.5553125 7.3828125 6.7890625 C10.32068117 8.60362844 10.6675584 9.7405461 11.5078125 13.1015625 C11.66129638 16.44239499 11.62460326 19.76004902 11.5078125 23.1015625 C10.5178125 22.1115625 10.5178125 22.1115625 9.5078125 21.1015625 C9.14429688 21.936875 9.14429688 21.936875 8.7734375 22.7890625 C7.0545807 26.70276721 5.29568408 30.56000679 3.3203125 34.3515625 C1.8246451 37.27912853 1.12004295 39.86548728 0.5078125 43.1015625 C-0.46104122 44.78652548 -1.46205473 46.45335006 -2.4921875 48.1015625 C-2.90791016 49.24818359 -2.90791016 49.24818359 -3.33203125 50.41796875 C-7.26407774 59.5133086 -15.45048492 66.93686115 -24.1171875 71.4765625 C-27.05890728 72.25069928 -29.46609298 72.43779522 -32.4921875 72.1015625 C-34.85405764 68.55875728 -35.01665867 67.27696406 -34.4921875 63.1015625 C-33.08711247 60.79008207 -31.76419735 58.90559092 -30.0546875 56.8515625 C-29.6009375 56.2829248 -29.1471875 55.71428711 -28.6796875 55.12841797 C-25.91346577 51.70049904 -23.00060687 48.44487159 -19.9921875 45.2265625 C-16.30358253 41.21692441 -13.19938124 36.99605236 -10.1796875 32.4765625 C-9.56673828 31.56221436 -9.56673828 31.56221436 -8.94140625 30.62939453 C-6.09483434 26.27409269 -3.75241134 21.78751856 -1.4921875 17.1015625 C-13.70986741 20.50648969 -23.01307581 27.90553499 -32.4921875 36.1015625 C-32.99427734 36.52985352 -33.49636719 36.95814453 -34.01367188 37.39941406 C-45.10407997 46.91044785 -56.29710892 58.80186599 -58.96484375 73.75 C-59.14347898 78.42558288 -58.41951091 81.32341136 -55.4921875 85.1015625 C-53.03336095 86.5265967 -50.77019987 87.68387792 -48.1796875 88.7890625 C-47.52806641 89.08361328 -46.87644531 89.37816406 -46.20507812 89.68164062 C-43.3524456 90.95233279 -40.55741793 92.08112887 -37.57421875 93.015625 C-33.30336658 94.5204373 -29.45545537 96.61449721 -25.4921875 98.7890625 C-24.71101563 99.19833984 -23.92984375 99.60761719 -23.125 100.02929688 C-16.50637583 103.65616921 -11.55807354 108.08933979 -8.4921875 115.1015625 C-8.19140625 117.94140625 -8.19140625 117.94140625 -8.1796875 121.0390625 C-8.16292969 122.05871094 -8.14617187 123.07835937 -8.12890625 124.12890625 C-8.82909351 129.85839551 -12.18600398 133.15276355 -16.44921875 136.6796875 C-19.88001769 139.06747108 -23.62464182 140.56557185 -27.4921875 142.1015625 C-28.1521875 142.4315625 -28.8121875 142.7615625 -29.4921875 143.1015625 C-32.09006279 143.25300814 -34.64327571 143.33293231 -37.2421875 143.3515625 C-38.29792969 143.3825 -38.29792969 143.3825 -39.375 143.4140625 C-44.12081003 143.44934733 -47.41157768 142.78024502 -51.4921875 140.1015625 C-51.8221875 139.1115625 -52.1521875 138.1215625 -52.4921875 137.1015625 C-53.4821875 137.1015625 -54.4721875 137.1015625 -55.4921875 137.1015625 C-56.4821875 139.0815625 -56.4821875 139.0815625 -57.4921875 141.1015625 C-62.5068236 141.1015625 -68.48971572 137.81291435 -72.4921875 135.1015625 C-70.6171875 128.2265625 -70.6171875 128.2265625 -69.4921875 127.1015625 C-62.62238141 126.87256896 -62.62238141 126.87256896 -59.1015625 127.5859375 C-47.75759759 129.82755931 -37.09682481 127.50465404 -27.4921875 121.1015625 C-26.28768446 118.54972846 -26.28768446 118.54972846 -25.4921875 116.1015625 C-23.8421875 116.1015625 -22.1921875 116.1015625 -20.4921875 116.1015625 C-20.8221875 114.7815625 -21.1521875 113.4615625 -21.4921875 112.1015625 C-22.1521875 112.7615625 -22.8121875 113.4215625 -23.4921875 114.1015625 C-26.43342207 113.68843312 -28.99272228 112.51752929 -31.6796875 111.2890625 C-32.4634375 110.93457031 -33.2471875 110.58007812 -34.0546875 110.21484375 C-34.8590625 109.84746094 -35.6634375 109.48007813 -36.4921875 109.1015625 C-46.08163633 104.40909692 -46.08163633 104.40909692 -56.4921875 103.1015625 C-56.4921875 102.1115625 -56.4921875 101.1215625 -56.4921875 100.1015625 C-57.2965625 100.3903125 -58.1009375 100.6790625 -58.9296875 100.9765625 C-65.34220275 101.20156304 -69.66803449 96.64812701 -74.3671875 92.6640625 C-78.99133747 87.08788165 -80.00445671 81.81042241 -79.8671875 74.7890625 C-79.85776123 74.04068115 -79.84833496 73.2922998 -79.83862305 72.52124023 C-79.67911384 66.64990351 -78.82481286 61.52867877 -76.4921875 56.1015625 C-76.151875 55.28558594 -75.8115625 54.46960938 -75.4609375 53.62890625 C-64.64098894 29.97854571 -39.08017951 10.65915392 -15.92578125 -0.08984375 C-10.80499735 -1.79129201 -5.0850038 -1.83315184 0 0 Z " fill="#222222" transform="translate(339.4921875,134.8984375)"/>
<path d="M0 0 C2.29013653 3.4352048 2.17842973 4.985331 2 9 C1.01 9.33 0.02 9.66 -1 10 C-0.49533203 10.72123047 -0.49533203 10.72123047 0.01953125 11.45703125 C1.47751999 15.23850803 0.99700358 18.69723347 0.6875 22.6875 C0.63916016 23.47189453 0.59082031 24.25628906 0.54101562 25.06445312 C0.14568356 30.85431644 0.14568356 30.85431644 -1 32 C-2.24175683 35.88049008 -2.5299604 39.97108913 -3 44 C-2.34 44.33 -1.68 44.66 -1 45 C-0.67 50.94 -0.34 56.88 0 63 C-0.66 63 -1.32 63 -2 63 C-1.7215625 64.3303125 -1.7215625 64.3303125 -1.4375 65.6875 C-1.01457364 68.88965669 -1.24758883 70.90675408 -2 74 C-2 74.99 -2 75.98 -2 77 C-1.34 77 -0.68 77 0 77 C-0.33 80.63 -0.66 84.26 -1 88 C-1.33 88 -1.66 88 -2 88 C-2 85.69 -2 83.38 -2 81 C-2.66 81 -3.32 81 -4 81 C-6.23542006 66.53443052 -5.96929023 52.57732105 -5 38 C-4.93264648 36.9702002 -4.86529297 35.94040039 -4.79589844 34.87939453 C-3.98519709 23.05258166 -2.73646728 11.54789191 0 0 Z " fill="#9E9C99" transform="translate(249,183)"/>
<path d="M0 0 C3.19588316 0.03448795 6.13691725 0.34672931 9.25 1.125 C8.26 1.62 8.26 1.62 7.25 2.125 C7.25 2.785 7.25 3.445 7.25 4.125 C7.91 4.455 8.57 4.785 9.25 5.125 C7.93 5.455 6.61 5.785 5.25 6.125 C6.054375 6.41375 6.85875 6.7025 7.6875 7 C10.25 8.125 10.25 8.125 11.25 10.125 C10.27727325 11.47835895 9.2760734 12.81162604 8.25 14.125 C3.2353639 14.125 -2.74752822 10.83635185 -6.75 8.125 C-4.57568807 0.15252294 -4.57568807 0.15252294 0 0 Z " fill="#2C2C2B" transform="translate(273.75,261.875)"/>
<path d="M0 0 C0.99 0.66 1.98 1.32 3 2 C-6.36022835 8.03822664 -13.75647395 11.535406 -25 11 C-25 9.68 -25 8.36 -25 7 C-11.29414231 3.93928178 -11.29414231 3.93928178 -6.3125 3.5 C-3.02172255 3.28060328 -3.02172255 3.28060328 -1 1.4375 C-0.67 0.963125 -0.34 0.48875 0 0 Z " fill="#888785" transform="translate(316,260)"/>
<path d="M0 0 C2.29013653 3.4352048 2.17842973 4.985331 2 9 C1.01 9.33 0.02 9.66 -1 10 C-0.49533203 10.72123047 -0.49533203 10.72123047 0.01953125 11.45703125 C1.47751999 15.23850803 0.99700358 18.69723347 0.6875 22.6875 C0.63916016 23.47189453 0.59082031 24.25628906 0.54101562 25.06445312 C0.14568356 30.85431644 0.14568356 30.85431644 -1 32 C-2.06162751 35.51089414 -2.51944699 39.12964662 -3.0625 42.75 C-3.23910156 43.92046875 -3.41570312 45.0909375 -3.59765625 46.296875 C-3.73042969 47.18890625 -3.86320313 48.0809375 -4 49 C-4.33 49 -4.66 49 -5 49 C-5.106026 41.53649471 -4.845441 34.18447972 -4.1875 26.75 C-4.10129395 25.75798584 -4.01508789 24.76597168 -3.92626953 23.74389648 C-3.1724792 15.68147534 -1.86697301 7.87862609 0 0 Z " fill="#807F7C" transform="translate(249,183)"/>
<path d="M0 0 C0.33 0.66 0.66 1.32 1 2 C3.32249342 2.40197001 5.65885633 2.72686657 8 3 C9.66934283 3.31966139 11.3373217 3.64731066 13 4 C13.33 3.34 13.66 2.68 14 2 C14.99 2.99 15.98 3.98 17 5 C16.02727325 6.35335895 15.0260734 7.68662604 14 9 C8.9853639 9 3.00247178 5.71135185 -1 3 C-0.67 2.01 -0.34 1.02 0 0 Z " fill="#807F7C" transform="translate(268,267)"/>
<path d="M0 0 C0.99 0.33 1.98 0.66 3 1 C3.33 6.94 3.66 12.88 4 19 C2.68 18.67 1.36 18.34 0 18 C-1.67407948 12.14072182 -1.52003714 5.89014391 0 0 Z " fill="#CDCBC6" transform="translate(245,227)"/>
<path d="M0 0 C3.63 0 7.26 0 11 0 C10.01 1.485 10.01 1.485 9 3 C8.01 3 7.02 3 6 3 C5.67 4.32 5.34 5.64 5 7 C3.68 6.67 2.36 6.34 1 6 C0.67 4.02 0.34 2.04 0 0 Z " fill="#5A5A58" transform="translate(285,264)"/>
<path d="M0 0 C0.33 0 0.66 0 1 0 C1 2.64 1 5.28 1 8 C1.66 8 2.32 8 3 8 C3.125 15.75 3.125 15.75 2 18 C1.01 18 0.02 18 -1 18 C-1.02707139 15.75006641 -1.04642829 13.50003905 -1.0625 11.25 C-1.07410156 9.99703125 -1.08570313 8.7440625 -1.09765625 7.453125 C-1.02021027 4.71463499 -0.82780815 2.58119707 0 0 Z " fill="#424241" transform="translate(244,256)"/>
<path d="M0 0 C1.3805087 3.76668598 0.59568159 6.44789173 -0.4375 10.25 C-0.72496094 11.32765625 -1.01242188 12.4053125 -1.30859375 13.515625 C-1.53675781 14.33546875 -1.76492187 15.1553125 -2 16 C-2.66 16 -3.32 16 -4 16 C-3.814375 14.7625 -3.62875 13.525 -3.4375 12.25 C-3.09536253 9.6929726 -2.92697503 8.23899081 -3.6875 5.75 C-3.790625 5.1725 -3.89375 4.595 -4 4 C-2.0625 1.75 -2.0625 1.75 0 0 Z " fill="#313130" transform="translate(248,184)"/>
<path d="M0 0 C0.66 0 1.32 0 2 0 C1.88658363 2.31309705 1.75896193 4.62550185 1.625 6.9375 C1.52058594 8.86916016 1.52058594 8.86916016 1.4140625 10.83984375 C1.27742187 11.88269531 1.14078125 12.92554688 1 14 C0.01 14.495 0.01 14.495 -1 15 C-1.33 13.35 -1.66 11.7 -2 10 C-1.34 10 -0.68 10 0 10 C-0.33 9.34 -0.66 8.68 -1 8 C-1.23076923 2.46153846 -1.23076923 2.46153846 0 0 Z " fill="#71706E" transform="translate(251,146)"/>
<path d="M0 0 C1.3921875 0.2784375 1.3921875 0.2784375 2.8125 0.5625 C6.01343771 1.24123881 6.01343771 1.24123881 9 0 C9.66 0.99 10.32 1.98 11 3 C10.67 3.99 10.34 4.98 10 6 C10 5.34 10 4.68 10 4 C6.45481116 5.39759905 6.45481116 5.39759905 3 7 C2.814375 5.824375 2.814375 5.824375 2.625 4.625 C2.20882007 1.85942178 2.20882007 1.85942178 0 0 Z " fill="#8E8D8A" transform="translate(309,247)"/>
<path d="M0 0 C-0.33 0.66 -0.66 1.32 -1 2 C-3.0625 2.625 -3.0625 2.625 -5 3 C-4.67 3.66 -4.34 4.32 -4 5 C-5.98 5 -7.96 5 -10 5 C-10 3.68 -10 2.36 -10 1 C-6.52674819 -0.1577506 -3.63932552 -0.06866652 0 0 Z " fill="#B9B7B3" transform="translate(301,266)"/>
<path d="M0 0 C0.33 0.66 0.66 1.32 1 2 C3.32156597 2.40729228 5.6568787 2.74438677 8 3 C7.67 3.99 7.34 4.98 7 6 C4.125 5.75 4.125 5.75 1 5 C-0.375 2.9375 -0.375 2.9375 -1 1 C-0.67 0.67 -0.34 0.34 0 0 Z " fill="#5D5D5B" transform="translate(268,267)"/>
<path d="M0 0 C0.66 0.99 1.32 1.98 2 3 C0.5437455 3.67119549 -0.91507867 4.33681807 -2.375 5 C-3.59316406 5.556875 -3.59316406 5.556875 -4.8359375 6.125 C-7 7 -7 7 -9 7 C-9 6.34 -9 5.68 -9 5 C-6.03 3.35 -3.06 1.7 0 0 Z " fill="#4C4C4A" transform="translate(319,270)"/>
<path d="M0 0 C-1 3 -1 3 -3 4 C-4.99960012 4.039992 -7.00047242 4.04346799 -9 4 C-8.67 3.01 -8.34 2.02 -8 1 C-2.59770115 -1.29885057 -2.59770115 -1.29885057 0 0 Z " fill="#393938" transform="translate(304,262)"/>
<path d="M0 0 C2.5625 0.3125 2.5625 0.3125 4.375 1.6875 C5.5625 3.3125 5.5625 3.3125 5.5625 5.3125 C2.15228257 4.52552675 -1.12635166 3.44130057 -4.4375 2.3125 C-2.4375 0.3125 -2.4375 0.3125 0 0 Z " fill="#3E3E3D" transform="translate(310.4375,243.6875)"/>
<path d="M0 0 C2 3 2 3 1.625 5.25 C1.41875 6.1575 1.2125 7.065 1 8 C0.96175377 10.33301986 0.95425716 12.66711508 1 15 C0.67 15 0.34 15 0 15 C-0.95348275 10.23258627 -1.16407956 5.84034716 -1 1 C-0.67 0.67 -0.34 0.34 0 0 Z " fill="#A3A19E" transform="translate(248,199)"/>
<path d="M0 0 C0.33 0.99 0.66 1.98 1 3 C1.66 3 2.32 3 3 3 C2.67 6.63 2.34 10.26 2 14 C1.67 14 1.34 14 1 14 C0.67 9.38 0.34 4.76 0 0 Z " fill="#B5B4B0" transform="translate(246,257)"/>
<path d="M0 0 C0.99 0.33 1.98 0.66 3 1 C3 3.97 3 6.94 3 10 C2.01 10 1.02 10 0 10 C-0.95024979 6.30458414 -0.95024979 3.69541586 0 0 Z " fill="#ACAAA7" transform="translate(245,227)"/>
<path d="M0 0 C0.99 0 1.98 0 3 0 C3.66 1.32 4.32 2.64 5 4 C4.34 4.66 3.68 5.32 3 6 C1.68 5.34 0.36 4.68 -1 4 C-0.67 2.68 -0.34 1.36 0 0 Z " fill="#B3B2AE" transform="translate(284,272)"/>
<path d="M0 0 C1.20272819 2.40545638 1.10071472 3.94996953 1.0625 6.625 C1.05347656 7.44226563 1.04445312 8.25953125 1.03515625 9.1015625 C1.02355469 9.72804687 1.01195312 10.35453125 1 11 C0.01 11.33 -0.98 11.66 -2 12 C-1.85962479 10.18706911 -1.71255111 8.3746557 -1.5625 6.5625 C-1.48128906 5.55316406 -1.40007812 4.54382813 -1.31640625 3.50390625 C-1 1 -1 1 0 0 Z " fill="#BDBBB7" transform="translate(254,144)"/>
<path d="M0 0 C0.33 0 0.66 0 1 0 C1.36923077 5.41538462 1.36923077 5.41538462 -0.5 8.375 C-0.995 8.91125 -1.49 9.4475 -2 10 C-2.6875 8.375 -2.6875 8.375 -3 6 C-1.5625 2.75 -1.5625 2.75 0 0 Z " fill="#9F9E9B" transform="translate(349,155)"/>
<path d="M0 0 C0.99 0.66 1.98 1.32 3 2 C-0.06117568 4.62386487 -0.73173127 5 -5 5 C-3.768606 2.53721199 -2.21935077 1.57502313 0 0 Z " fill="#7D7C7A" transform="translate(316,260)"/>
</svg>
